<?xml version="1.0" encoding="utf-8"?>
<!-- Generator: Adobe Illustrator 23.0.1, SVG Export Plug-In . SVG Version: 6.00 Build 0)  -->
<svg version="1.1" id="圖層_1" xmlns="http://www.w3.org/2000/svg" xmlns:xlink="http://www.w3.org/1999/xlink" x="0px" y="0px"
	 viewBox="0 0 441.17 443.2" style="enable-background:new 0 0 441.17 443.2;" xml:space="preserve">
<style type="text/css">
	.st0{fill:#633319;}
</style>
<path class="st0" d="M123.82,162.01c4.34-0.15,7.85-1.82,14.41-4.95c2.69-1.28,4.99-2.54,6.88-3.65c8.8-0.21,17.52,0.26,26.09,1.39
	c-2.53,0.26-7.44,0.83-10.15,1.65c-3.96,1.2-9,4.71-13.04,15.29c7.4,1.92,11.68-0.21,13.1-1.04c2.83-1.66,4.48-4.15,7.55-8.81
	c1.8-2.73,3.1-5.14,3.98-6.91c10.02,1.4,19.84,3.71,29.35,6.88c-2.15,0.19-7.91,0.74-10.94,1.63c-3.97,1.16-9.04,4.63-13.18,15.17
	c7.38,1.99,11.68-0.1,13.11-0.92c2.84-1.64,4.51-4.11,7.63-8.74c1.84-2.73,3.17-5.15,4.06-6.91c8.85,2.99,17.44,6.73,25.68,11.19
	c-2.67-0.18-6.95-0.38-9.49-0.08c-4.11,0.49-9.68,3.07-15.5,12.79c6.95,3.18,11.54,1.83,13.09,1.25c3.08-1.14,5.13-3.31,8.97-7.36
	c2.02-2.13,3.6-4.09,4.75-5.61c8.41,4.69,16.46,10.13,24.05,16.29c-2.27-0.48-7.65-1.54-10.7-1.58c-4.14-0.05-10,1.79-17.03,10.67
	c6.48,4.06,11.21,3.31,12.81,2.94c3.2-0.74,5.52-2.62,9.84-6.13c2.49-2.02,4.43-3.9,5.79-5.31c3.06,2.51,6.05,5.14,8.96,7.89
	c4.04,3.83,7.87,7.82,11.48,11.97c-2.61-0.66-6.47-1.54-8.88-1.7c-4.13-0.27-10.08,1.26-17.57,9.75c6.26,4.4,11.01,3.9,12.64,3.62
	c3.23-0.56,5.65-2.32,10.16-5.6c2.12-1.54,3.87-3.01,5.22-4.23c8.21,9.72,15.23,20.26,20.95,31.42c-0.24-0.17-6.65-4.57-10.21-6.06
	c-3.82-1.59-9.94-2.07-19.78,3.54c4.5,6.18,9.16,7.26,10.79,7.51c3.24,0.51,6.1-0.37,11.42-2.01c3.32-1.02,5.99-2.14,7.8-2.96
	c11.21,21.88,17.49,46.17,18.2,71.48c0.02,0.55,0.48,0.99,1.03,0.97c0.14,0,0.28-0.04,0.4-0.1c0.35-0.16,0.58-0.52,0.57-0.93
	c-0.71-25.58-7.11-49.69-17.93-71.16c1.08-0.84,6.91-5.41,9.42-8.32c2.92-3.39,5.52-9.5,3.37-21.45
	c-7.72,2.55-10.41,6.97-11.23,8.56c-1.64,3.15-1.76,6.37-1.97,12.37c-0.12,3.39,0.01,6.26,0.18,8.35
	c-6.06-11.93-13.5-23.03-22.09-33.12c1.93-1.75,6.07-5.61,7.99-8.17c2.68-3.57,4.88-9.84,1.93-21.62
	c-7.53,3.06-9.92,7.65-10.64,9.28c-1.43,3.25-1.33,6.47-1.15,12.48c0.07,2.45,0.27,4.61,0.48,6.41
	c-6.23-7.13-13.05-13.73-20.37-19.73c0.94-2.04,3.55-7.82,4.37-11.17c1.06-4.34,0.61-10.97-6.74-20.63
	c-5.72,5.78-6.11,10.94-6.12,12.72c-0.03,3.55,1.33,6.47,3.86,11.92c1.09,2.34,2.17,4.33,3.11,5.94c-7.51-6.01-15.54-11.39-24-16.06
	c0.8-2.06,3.06-8.04,3.68-11.46c0.79-4.4-0.08-10.99-8.01-20.18c-5.35,6.12-5.42,11.3-5.32,13.08c0.19,3.55,1.73,6.38,4.6,11.66
	c1.35,2.48,2.67,4.56,3.77,6.18c-8.33-4.51-17.08-8.33-26.16-11.4c0.16-1.82,0.73-8.7,0.34-12.34c-0.48-4.44-3.16-10.52-13.36-17.11
	c-3.41,7.38-2.02,12.37-1.43,14.05c1.18,3.35,3.45,5.63,7.69,9.9c2.15,2.16,4.13,3.88,5.7,5.15c-8.9-2.94-18.11-5.17-27.57-6.6
	c-0.29-2.76-0.9-7.89-1.76-10.76c-1.28-4.28-5.01-9.78-16.24-14.41c-2.02,7.88,0.25,12.53,1.14,14.08c1.77,3.08,4.41,4.91,9.35,8.34
	c1.17,0.81,2.29,1.54,3.33,2.18c-7.75-0.97-15.67-1.41-23.69-1.29c-2.68-1.02-9.55-3.54-13.57-4.28
	c-5.34-0.98-13.41-0.13-24.95,8.64C115.33,161.9,121.64,162.08,123.82,162.01z"/>
</svg>
