<?xml version="1.0" encoding="utf-8"?>
<!-- Generator: Adobe Illustrator 23.0.1, SVG Export Plug-In . SVG Version: 6.00 Build 0)  -->
<svg version="1.1" id="圖層_1" xmlns="http://www.w3.org/2000/svg" xmlns:xlink="http://www.w3.org/1999/xlink" x="0px" y="0px"
	 viewBox="0 0 438.91 461.22" style="enable-background:new 0 0 438.91 461.22;" xml:space="preserve">
<style type="text/css">
	.st0{fill:#F1E4DA;}
</style>
<g>
	<path class="st0" d="M306.28,318.09c0.25-0.79-0.18-1.63-0.97-1.89l-64.57-20.71c-13.39-4.29-27.54-4.29-40.92,0.02l-64.51,20.74
		c-0.79,0.25-1.22,1.1-0.97,1.89c0.2,0.64,0.79,1.04,1.43,1.04c0.15,0,0.31-0.02,0.46-0.07l64.51-20.74
		c12.79-4.11,26.3-4.12,39.09-0.02l64.57,20.71C305.18,319.31,306.03,318.88,306.28,318.09z"/>
	<path class="st0" d="M238.65,327.48c-12.02-3.42-24.71-3.42-36.72,0.01l-35.2,10.06c-0.8,0.23-1.26,1.06-1.03,1.85
		c0.19,0.66,0.79,1.09,1.44,1.09c0.14,0,0.28-0.02,0.41-0.06l35.2-10.06c11.47-3.28,23.6-3.28,35.08-0.01l35.24,10.04
		c0.8,0.22,1.63-0.23,1.85-1.03c0.23-0.8-0.23-1.63-1.03-1.85L238.65,327.48z"/>
	<path class="st0" d="M199.66,69.99c4.34-0.15,7.85-1.82,14.41-4.95c2.69-1.28,4.99-2.54,6.88-3.65c8.8-0.21,17.52,0.26,26.09,1.39
		c-2.53,0.26-7.44,0.83-10.15,1.65c-3.96,1.2-9,4.71-13.04,15.29c7.4,1.92,11.68-0.21,13.1-1.04c2.83-1.66,4.48-4.15,7.55-8.81
		c1.8-2.73,3.1-5.14,3.98-6.91c10.02,1.4,19.84,3.71,29.35,6.88c-2.15,0.19-7.91,0.74-10.94,1.63c-3.97,1.16-9.04,4.63-13.18,15.17
		c7.38,1.99,11.68-0.1,13.11-0.92c2.84-1.64,4.51-4.11,7.63-8.74c1.84-2.73,3.17-5.15,4.06-6.91c8.85,2.99,17.44,6.73,25.68,11.19
		c-2.67-0.18-6.95-0.38-9.49-0.08c-4.11,0.49-9.68,3.07-15.5,12.79c6.95,3.18,11.54,1.83,13.09,1.25c3.08-1.14,5.13-3.31,8.97-7.36
		c2.02-2.13,3.6-4.09,4.75-5.61c8.41,4.69,16.46,10.13,24.05,16.29c-2.27-0.48-7.65-1.54-10.7-1.58c-4.14-0.05-10,1.79-17.03,10.67
		c6.48,4.06,11.21,3.31,12.81,2.94c3.2-0.74,5.52-2.62,9.84-6.13c2.49-2.02,4.43-3.9,5.79-5.31c3.06,2.51,6.05,5.14,8.96,7.89
		c4.04,3.83,7.87,7.82,11.48,11.97c-2.61-0.66-6.47-1.54-8.88-1.7c-4.13-0.27-10.08,1.26-17.57,9.75c6.26,4.4,11.01,3.9,12.64,3.62
		c3.23-0.56,5.65-2.32,10.16-5.6c2.12-1.54,3.87-3.01,5.22-4.23c8.21,9.72,15.23,20.26,20.95,31.42c-0.24-0.17-6.65-4.57-10.21-6.06
		c-3.82-1.59-9.94-2.07-19.78,3.54c4.5,6.18,9.16,7.26,10.79,7.51c3.24,0.51,6.1-0.37,11.42-2.01c3.32-1.02,5.99-2.14,7.8-2.96
		c11.21,21.88,17.49,46.17,18.2,71.48c0.02,0.55,0.48,0.99,1.03,0.97c0.14,0,0.28-0.04,0.4-0.1c0.35-0.16,0.58-0.52,0.57-0.93
		c-0.71-25.58-7.11-49.69-17.93-71.16c1.08-0.84,6.91-5.41,9.42-8.32c2.92-3.39,5.52-9.5,3.37-21.45
		c-7.72,2.55-10.41,6.97-11.23,8.56c-1.64,3.15-1.76,6.37-1.97,12.37c-0.12,3.39,0.01,6.26,0.18,8.35
		c-6.06-11.93-13.5-23.03-22.09-33.12c1.93-1.75,6.07-5.61,7.99-8.17c2.68-3.57,4.88-9.84,1.93-21.62
		c-7.53,3.06-9.92,7.65-10.64,9.28c-1.43,3.25-1.33,6.47-1.15,12.48c0.07,2.45,0.27,4.61,0.48,6.41
		c-6.23-7.13-13.05-13.73-20.37-19.73c0.94-2.04,3.55-7.82,4.37-11.17c1.06-4.34,0.61-10.97-6.74-20.63
		c-5.72,5.78-6.11,10.94-6.12,12.72c-0.03,3.55,1.33,6.47,3.86,11.92c1.09,2.34,2.17,4.33,3.11,5.94
		c-7.51-6.01-15.54-11.39-24-16.06c0.8-2.06,3.06-8.04,3.68-11.46c0.79-4.4-0.08-10.99-8.01-20.18c-5.35,6.12-5.42,11.3-5.32,13.08
		c0.19,3.55,1.73,6.38,4.6,11.66c1.35,2.48,2.67,4.56,3.77,6.18c-8.33-4.51-17.08-8.33-26.16-11.4c0.16-1.82,0.73-8.7,0.34-12.34
		c-0.48-4.44-3.16-10.52-13.36-17.11c-3.41,7.38-2.02,12.37-1.43,14.05c1.18,3.35,3.45,5.63,7.69,9.9c2.15,2.16,4.13,3.88,5.7,5.15
		c-8.9-2.94-18.11-5.17-27.57-6.6c-0.29-2.76-0.9-7.89-1.76-10.76c-1.28-4.28-5.01-9.78-16.24-14.41
		c-2.02,7.88,0.25,12.53,1.14,14.08c1.77,3.08,4.41,4.91,9.35,8.34c1.17,0.81,2.29,1.54,3.33,2.18c-7.75-0.97-15.67-1.41-23.69-1.29
		c-2.68-1.02-9.55-3.54-13.57-4.28c-5.34-0.98-13.41-0.13-24.95,8.64C191.17,69.89,197.48,70.07,199.66,69.99z"/>
	<path class="st0" d="M220.98,400.99c-2.87,1.26-5.32,2.51-7.3,3.59c-8.85-0.07-17.54-0.84-26.01-2.24c2.56-0.18,7.4-0.6,10.11-1.32
		c4-1.07,9.14-4.42,13.53-14.86c-7.33-2.16-11.68-0.17-13.13,0.62c-2.88,1.57-4.61,4.01-7.83,8.56c-1.88,2.65-3.25,5.01-4.18,6.75
		c-9.98-1.75-19.66-4.37-28.94-7.81c2.28-0.13,7.82-0.5,10.8-1.26c4.01-1.03,9.18-4.33,13.66-14.74c-7.31-2.23-11.68-0.28-13.14,0.5
		c-2.9,1.54-4.64,3.96-7.91,8.48c-1.9,2.63-3.3,4.98-4.25,6.71c-8.74-3.29-17.14-7.28-25.11-11.92c2.68,0.26,6.78,0.58,9.26,0.37
		c4.12-0.35,9.77-2.76,15.91-12.28c-6.85-3.41-11.47-2.2-13.04-1.68c-3.11,1.04-5.23,3.14-9.2,7.06c-2.05,2.02-3.67,3.9-4.86,5.37
		c-8.29-4.97-16.11-10.64-23.39-16.93c2.35,0.57,7.49,1.75,10.45,1.88c4.14,0.18,10.05-1.47,17.36-10.12
		c-6.35-4.26-11.09-3.67-12.71-3.35c-3.22,0.63-5.6,2.44-10.04,5.81c-2.52,1.91-4.5,3.71-5.9,5.07c-6.58-5.76-12.7-12.03-18.3-18.74
		c2.39,1.1,5.58,2.48,7.71,3.04c4,1.05,10.13,0.68,19.11-6.23c-5.3-5.51-10.07-5.93-11.72-5.96c-3.28-0.06-5.99,1.2-11.04,3.57
		c-2.41,1.13-4.44,2.26-6.01,3.2c-8.18-10.16-15.2-21.29-20.85-33.19c1.04,0.76,6.61,4.79,9.85,6.27c3.77,1.72,9.87,2.39,19.89-2.89
		c-4.29-6.33-8.92-7.55-10.54-7.86c-3.22-0.62-6.1,0.17-11.48,1.64c-3.3,0.9-5.97,1.91-7.8,2.67
		c-10.34-21.84-16.08-46.26-15.96-71.99c0-0.55-0.44-1-1-1c-0.56-0.01-1,0.44-1,1c-0.12,25.59,5.5,49.89,15.62,71.7
		c-1.11,0.81-7.08,5.18-9.68,8.01c-3.02,3.29-5.83,9.31-4.06,21.33c7.8-2.3,10.63-6.63,11.51-8.19c1.74-3.1,1.96-6.31,2.37-12.3
		c0.23-3.39,0.19-6.26,0.09-8.35c5.62,12.01,12.62,23.26,20.78,33.54c-1.65,1.39-6.56,5.59-8.75,8.33c-2.8,3.48-5.2,9.68-2.63,21.55
		c7.63-2.81,10.17-7.32,10.94-8.93c1.53-3.21,1.54-6.42,1.55-12.43c0.01-3.02-0.18-5.61-0.39-7.61c6.22,7.73,13.1,14.9,20.56,21.43
		c-1.01,2.01-3.8,7.7-4.73,11.03c-1.2,4.3-0.96,10.94,6.07,20.84c5.9-5.59,6.46-10.74,6.53-12.52c0.14-3.55-1.12-6.51-3.47-12.04
		c-1.01-2.37-2.03-4.4-2.91-6.04c7.31,6.25,15.16,11.88,23.47,16.83c-0.87,2.03-3.32,7.93-4.05,11.33
		c-0.93,4.37-0.28,10.98,7.36,20.42c5.54-5.95,5.78-11.12,5.74-12.9c-0.08-3.55-1.52-6.43-4.22-11.8c-1.27-2.52-2.52-4.64-3.57-6.3
		c8.18,4.77,16.8,8.88,25.78,12.24c-0.22,1.81-1.01,8.67-0.74,12.32c0.34,4.46,2.82,10.62,12.8,17.53c3.65-7.27,2.42-12.29,1.88-14
		c-1.07-3.39-3.27-5.74-7.36-10.14c-2.08-2.23-4-4.01-5.53-5.34c8.8,3.23,17.94,5.75,27.35,7.49c0.2,2.77,0.65,7.91,1.41,10.81
		c1.14,4.32,4.7,9.93,15.76,14.92c2.27-7.81,0.15-12.53-0.68-14.1c-1.67-3.14-4.25-5.05-9.08-8.64c-1.14-0.85-2.24-1.61-3.26-2.28
		c7.97,1.27,16.14,1.96,24.44,2.07c2.9,1.2,9.21,3.72,13,4.54c5.3,1.15,13.4,0.57,25.21-7.83c-7.05-6.39-13.36-6.77-15.54-6.77
		C231.2,396.51,227.64,398.08,220.98,400.99z"/>
	<path class="st0" d="M139.24,182.81c-14.48,0-25.23,43.39-25.23,56.67c0,13.88,11.27,25.18,25.13,25.23v16.51
		c0,0.48,0.23,0.9,0.57,1.17l-28.79,9.89c-0.78,0.27-1.2,1.12-0.93,1.91c0.27,0.78,1.12,1.2,1.91,0.93l87.58-30.09
		c13.38-4.6,28.12-4.6,41.51-0.01l87.75,30.1c0.16,0.06,0.33,0.08,0.49,0.08c0.62,0,1.21-0.39,1.42-1.01
		c0.27-0.78-0.15-1.64-0.93-1.91l-87.75-30.1c-14.01-4.81-29.45-4.8-43.46,0.01l-18.39,6.32v-15.83
		c12.55-1.44,22.33-12.13,22.33-25.06c0-13.28-10.75-56.68-25.23-56.68c-8.98,0-16.52,16.68-20.95,32.52
		C151.86,192.14,145.95,182.81,139.24,182.81z M142.1,281.57c0.03-0.11,0.05-0.23,0.05-0.35v-16.68c9.52-1.09,17.46-7.51,20.72-16.2
		c4.05,2.83,8.96,4.49,14.26,4.51v16.51c0,0.06,0.01,0.11,0.02,0.17L142.1,281.57z M163.64,230.92l12.81,11.34
		c0.19,0.17,0.42,0.25,0.66,0.25h0.01v7.34c-5.01-0.02-9.63-1.71-13.34-4.54c0.45-1.87,0.69-3.82,0.69-5.83
		C164.47,237.32,164.19,234.36,163.64,230.92z M177.22,173.94c11.18,0,22.23,39.47,22.23,53.68c0,11.28-8.43,20.62-19.33,22.03
		v-7.43c0.1,0.03,0.21,0.05,0.32,0.05c0.25,0,0.51-0.09,0.7-0.28l13.97-13.72c0.39-0.39,0.4-1.02,0.01-1.42
		c-0.38-0.39-1.02-0.39-1.41-0.01l-13.59,13.35v-13.65l12.5-12.27c0.39-0.38,0.4-1.02,0.01-1.41c-0.39-0.39-1.02-0.4-1.41-0.01
		l-11.1,10.9v-14.94l9.23-9.37c0.39-0.39,0.38-1.02-0.01-1.41c-0.39-0.39-1.03-0.39-1.42,0.01l-7.8,7.92v-21.15
		c0-0.83-0.67-1.5-1.5-1.5s-1.5,0.67-1.5,1.5v21.32l-8.83-8.32c-0.4-0.37-1.03-0.36-1.41,0.05c-0.38,0.4-0.36,1.03,0.04,1.41
		l10.2,9.6v15.09l-13.02-11.53c-0.41-0.36-1.04-0.33-1.41,0.09c-0.36,0.41-0.33,1.04,0.09,1.41L177,226.52
		c0.04,0.03,0.08,0.06,0.12,0.08v13.58l-14.02-12.41v-0.01c-1.1-5.92-2.83-12.82-5.06-19.43
		C162.08,192.18,169.63,173.94,177.22,173.94z M161.47,239.48c0,1.19-0.09,2.37-0.28,3.51c-0.09,0.6-0.21,1.2-0.36,1.78
		c-0.13,0.55-0.28,1.09-0.46,1.61c-2.62,8.01-9.66,14.02-18.23,15.13v-7.43c0.1,0.03,0.21,0.05,0.32,0.05c0.25,0,0.5-0.09,0.7-0.28
		L156,241.24l1.09-1.07l0.04-0.04c0.39-0.39,0.4-1.02,0.01-1.41c-0.27-0.28-0.67-0.37-1.02-0.25c-0.14,0.04-0.28,0.12-0.39,0.23
		l-0.78,0.77l-12.81,12.58v-13.64l9.88-9.69l1.48-1.46l1.14-1.12c0.39-0.39,0.4-1.03,0.01-1.42c-0.27-0.27-0.66-0.36-1.01-0.25
		c-0.15,0.04-0.29,0.12-0.41,0.24l-1.19,1.17l-9.9,9.73v-14.94l9.23-9.37c0.39-0.39,0.38-1.02-0.01-1.41
		c-0.4-0.39-1.03-0.38-1.42,0.01l-7.8,7.92v-21.15c0-0.83-0.67-1.5-1.5-1.5c-0.83,0-1.5,0.67-1.5,1.5v21.32l-8.83-8.31
		c-0.4-0.38-1.03-0.36-1.41,0.04c-0.38,0.4-0.36,1.03,0.04,1.41l10.2,9.6v15.09l-13.02-11.53c-0.41-0.36-1.04-0.32-1.41,0.09
		c-0.36,0.41-0.33,1.04,0.09,1.41l14.22,12.6c0.04,0.03,0.08,0.06,0.12,0.09v13.56l-15.37-13.61c-0.41-0.36-1.05-0.32-1.41,0.09
		c-0.37,0.41-0.33,1.04,0.08,1.41l16.03,14.19c0.19,0.17,0.42,0.25,0.66,0.25h0.01v7.34c-12.21-0.05-22.13-10-22.13-22.23
		c0-14.21,11.06-53.67,22.23-53.67c5.77,0,11.51,10.53,15.72,22.67c0.31,0.89,0.61,1.79,0.89,2.69c0.31,0.94,0.6,1.89,0.88,2.83
		c0,0.01,0,0.01,0,0.01C159.65,223.78,161.47,233.71,161.47,239.48z"/>
	<path class="st0" d="M322.48,217.11c0.67-0.88,0.5-2.13-0.38-2.8l-52.91-40.26c-0.71-0.54-1.71-0.54-2.42,0l-52.86,40.29
		c-0.88,0.67-1.05,1.92-0.38,2.8c0.39,0.52,0.99,0.79,1.59,0.79c0.42,0,0.85-0.13,1.21-0.41l51.65-39.37l51.69,39.34
		C320.56,218.16,321.82,217.99,322.48,217.11z"/>
	<path class="st0" d="M232.49,208.26v45.43c0,0.83,0.67,1.5,1.5,1.5s1.5-0.67,1.5-1.5v-45.43c0-0.83-0.67-1.5-1.5-1.5
		S232.49,207.43,232.49,208.26z"/>
	<path class="st0" d="M300.53,208.26v66.74c0,0.83,0.67,1.5,1.5,1.5s1.5-0.67,1.5-1.5v-66.74c0-0.83-0.67-1.5-1.5-1.5
		S300.53,207.43,300.53,208.26z"/>
	<path class="st0" d="M60.16,218.05c0.1-0.5,0.26-1.81,0.31-2.49c-5.78-0.69-15.69-1.95-21.7-2.67c0.14-2.47,0.47-5.36,0.9-8.52
		c-0.64-0.08-1.58-0.2-2.22-0.25c-0.91,5.62-1.2,12.71-1.16,17.83c0,0.55,0.28,1.02,0.71,1.42c0.46,0.4,1.08,0.65,1.68,0.76
		c-0.26-2.83-0.22-5.79,0.01-8.7C44.33,216.12,54.51,217.37,60.16,218.05z"/>
	<path class="st0" d="M63.08,201.12l-23.72-5.17c-0.14,0.63-0.47,1.98-0.58,2.51c5.72,1.25,17.94,3.87,23.79,5.15
		C62.7,203.01,62.93,201.81,63.08,201.12z"/>
	<path class="st0" d="M63.02,197.11c0.49-0.2,0.93-0.8,1.31-1.43c-2.05-1.58-3.86-3.04-5.84-4.74c0.3-3.95,1.5-8.26,2.92-12.04
		c2.8-0.21,5.98-0.36,8.33-0.39c-0.02-0.5-0.08-1.2-0.34-1.71c-0.22-0.43-0.55-0.71-1.1-0.67c-7.42,0.3-16.62,1.3-24.24,2.46
		c-0.19,0.61-0.46,1.45-0.66,1.96c6.05,5.88,11.68,10.8,18.29,16.25C62.21,197.21,62.62,197.27,63.02,197.11z M46.9,180.63
		c3.67-0.6,8.47-1.17,12.02-1.49c-1.08,3.06-2.06,6.66-2.55,9.99C53.43,186.66,50.04,183.59,46.9,180.63z"/>
	<path class="st0" d="M70.92,174.29c0.45-0.24,0.83-0.73,1.11-1.31c-5.72-2.55-12.5-5.79-18.31-9.36c6.8-1.47,15.89-2.64,24.27-3.44
		l1.08-2.3c-7.83-3.63-15-6.67-22.35-9.51c-0.3,0.64-0.84,1.78-1.1,2.25c6.37,2.29,12.66,4.74,18.57,7.61
		c-8.56,0.93-14.93,1.89-23.8,3.62c-0.25,0.52-0.72,1.53-1,2.04c6.52,3.87,14.37,7.95,19.94,10.42
		C69.95,174.59,70.48,174.58,70.92,174.29z"/>
	<path class="st0" d="M97.12,115.19c2.05,1.97,5.67,5.39,7.85,7.47c0.42-0.49,1.1-1.2,1.64-1.81c-1.93-1.85-5.79-5.51-7.87-7.5
		c-1.58-4.66-2.05-9.85-2.28-15.04c-0.74,0.09-1.72,0.18-2.53,0.29c0.17,4.76,0.82,9.32,1.92,13.7c-4.17-1.28-8.77-1.52-13.39-1.54
		c-0.13,0.67-0.32,1.9-0.45,2.52C87.21,113.25,92.44,113.57,97.12,115.19z"/>
	<path class="st0" d="M109.16,106.06c1.75,1.85,3.55,3.4,6.18,3.59c2.61,0.16,5.08-1.08,7.15-2.83c1.49-1.28,2.77-2.66,3.4-4.47
		c0.54-1.6,0.62-3.5-0.1-5.04c-2.21-4.87-6.82-9.46-10.68-13.14c-0.55-0.52-1.12-0.75-1.7-0.72c-0.65,0-1.29,0.34-1.9,0.88
		c3.85,3.29,7.89,7.34,10.75,11.39c1.02,1.44,1.77,3.01,1.68,4.64c-0.11,1.91-1.48,3.62-2.86,4.82c-1.33,1.11-3.3,2.22-5.12,2.16
		c-2.04-0.05-3.8-1.6-5.13-3.04c-3.4-3.74-6.29-8.32-8.62-12.53c-0.4,0.37-0.81,0.83-1.07,1.38c-0.28,0.57-0.3,1.2,0.07,1.81
		C103.42,98.81,106.2,102.92,109.16,106.06z"/>
	<path class="st0" d="M130.69,99.19c0.5,0.17,1.23,0.01,1.93-0.22c-0.51-2.54-0.9-4.83-1.28-7.42c2.83-2.78,6.57-5.24,10.12-7.15
		c2.25,1.69,4.74,3.66,6.54,5.19c0.32-0.39,0.73-0.96,0.87-1.51c0.11-0.47,0.05-0.9-0.39-1.23c-5.78-4.65-13.37-9.95-19.87-14.1
		c-0.55,0.33-1.3,0.79-1.79,1.04c0.69,8.4,1.7,15.83,3.09,24.28C130.01,98.73,130.28,99.04,130.69,99.19z M139.42,82.95
		c-2.83,1.59-5.93,3.67-8.49,5.84c-0.59-3.79-1.12-8.34-1.54-12.63C132.55,78.13,136.54,80.86,139.42,82.95z"/>
	<path class="st0" d="M151.66,87.2c0.49,0.12,1.11,0,1.7-0.26c-2.62-5.69-5.59-12.59-7.61-19.1c6.08,3.37,13.69,8.48,20.52,13.4
		l2.33-1.01c-3.51-7.89-6.89-14.9-10.55-21.88c-0.65,0.28-1.8,0.78-2.31,0.97c3.28,5.92,6.4,11.91,8.96,17.96
		c-7.06-4.94-12.48-8.41-20.29-12.95c-0.53,0.23-1.55,0.68-2.09,0.87c2.36,7.21,5.58,15.44,8.13,20.97
		C150.74,86.78,151.15,87.12,151.66,87.2z"/>
	<path class="st0" d="M79.1,138.9c1.68-0.42,2.7-2.12,2.29-3.81s-2.12-2.7-3.81-2.28s-2.7,2.12-2.29,3.81S77.42,139.32,79.1,138.9z"
		/>
	<path class="st0" d="M277.64,396.79c-0.96-1.02-2.38-1.76-3.82-1.87c0.94-1.03,1.48-2.11,1.57-3.52c0.06-1.17-0.22-2.32-0.84-3.3
		c-0.69-1.1-1.77-1.89-3-2.26c-1.36-0.4-2.9-0.26-4.41,0.09c-2.79,0.61-5.5,1.83-7.83,3.53c-0.4,0.3-0.6,0.74-0.63,1.2
		c-0.07,0.57,0.1,1.19,0.27,1.69c0.33-0.31,0.81-0.67,1.14-0.86c0.97,5.16,2.7,12.27,4.4,18.13c2.85-0.72,6.12-1.59,8.95-2.39
		c1.79-0.49,3.72-1.54,4.78-3.08c0.88-1.24,1.16-2.7,0.91-4.17C278.94,398.71,278.5,397.68,277.64,396.79z M262.03,390.25
		c1.69-0.98,3.69-1.88,5.73-2.28c1.07-0.2,2.18-0.37,3.22,0.02c1.01,0.4,1.76,1.25,2.05,2.33c0.25,0.93,0.16,1.88-0.34,2.73
		c-0.54,0.85-1.85,1.79-3.08,2.13c-1.85,0.51-4.23,1.2-6.23,1.75C262.89,394.77,262.44,392.42,262.03,390.25z M276.34,402.8
		c-0.69,1.12-1.82,1.69-3.08,2.13c-2.26,0.78-4.79,1.51-7.29,2.13c-0.82-2.73-1.46-5.32-2.11-8.03l7.38-2.03
		c1.29-0.35,2.57-0.22,3.63,0.35c1.01,0.53,1.65,1.44,1.89,2.56C276.98,400.92,276.87,401.92,276.34,402.8z"/>
	<path class="st0" d="M295.24,393.84c-0.44-0.19-0.98-0.28-1.47-0.18c0.13,1.58-0.01,3.07-1.15,4.3c-1.28,1.38-3.62,2.28-5.44,1.91
		c-1.93-0.4-3.23-1.74-3.94-3.43c3.65-2.06,7.51-3.74,11.61-5.17c-0.59-1.47-1.36-2.73-2.41-3.77c-1.17-1.17-3.05-1.95-4.73-1.91
		c-2.19,0.04-4.3,1.02-5.76,2.6c-1.32,1.46-1.93,3.27-1.84,5.24c0.09,2.57,1.3,5.18,3.1,6.83c1.5,1.4,3.65,2.04,5.65,1.78
		c1.91-0.23,4.17-1.33,5.53-2.78c1.1-1.17,1.76-2.77,1.7-4.35C296.06,394.38,295.69,394.06,295.24,393.84z M282.57,394.53
		c-0.35-1.13-0.32-2.47,0.12-3.62c0.5-1.33,1.5-2.33,2.77-2.91c1.3-0.59,2.66-0.6,3.92,0.03c1.13,0.58,1.66,1.24,2.29,2.32
		C288.57,391.6,285.27,393.09,282.57,394.53z"/>
	<path class="st0" d="M302.09,371.28l-1.89,0.99c1.5,2.39,2.75,4.37,4.25,7.04c-1.48-0.62-2.49-0.75-3.95-0.27
		c-1.54,0.53-2.85,1.57-3.63,2.95c-0.88,1.58-1.07,3.57-0.71,5.31c0.4,2.03,1.57,4.25,3.1,5.65c1.2,1.09,2.81,1.88,4.44,1.94
		c1.62,0.02,3.3-0.65,4.5-1.76c1.03-0.96,1.59-2.17,1.88-3.61c0.4,0.77,0.97,1.91,1.21,2.44c0.41-0.29,0.89-0.71,1.15-1.2
		c0.2-0.42,0.26-0.84,0.03-1.28C309.12,382.95,306,377.52,302.09,371.28z M307.88,390.39c-0.74,1.26-1.95,2.14-3.4,2.31
		c-1.12,0.13-2.53-0.21-3.4-0.94c-1.42-1.18-2.5-3.03-2.83-4.92c-0.25-1.34-0.12-2.84,0.61-4.03c0.73-1.15,2.04-1.98,3.41-2.03
		c1.3-0.05,2.53,0.56,3.49,1.46c1.21,1.18,2.09,2.92,2.47,4.58C308.56,388.14,308.56,389.26,307.88,390.39z"/>
	<path class="st0" d="M332.45,366.63c-0.15-0.55-0.49-0.91-0.96-1.06c-0.46-0.15-1.05-0.1-1.54,0.12c0.41,1.56,0.68,2.94,0.83,4.58
		c-2.36-0.5-4.59-1.02-6.69-1.64c0.54-1.19,1.09-2.66,1.23-3.97c0.15-1.44-0.33-2.78-1.23-3.77c-1.06-1.14-2.54-1.65-4.13-1.34
		c-1.54,0.28-3.02,1.4-3.86,2.7c-0.67,1.06-0.93,2.3-0.68,3.51c0.28,1.19,1.05,2.15,2.16,2.79c1.12,0.66,2.41,1.12,3.64,1.47
		c-0.69,1.5-1.4,3.43-1.51,5.23c-0.06,1.05,0.09,1.96,0.44,2.78c0.39,0.87,1.02,1.6,1.92,2.27c1.26,0.95,2.83,1.43,4.43,1.22
		c1.01-0.15,1.97-0.53,2.78-1.1c0.83-0.59,1.53-1.36,2.07-2.24c0.89-1.54,1.37-3.42,1.58-5.24c1.07,0.24,2.8,0.52,3.83,0.63
		c0.56,0.08,1.04-0.17,1.38-0.54c0.39-0.41,0.64-1,0.74-1.53c-1.85-0.19-3.94-0.47-5.92-0.83
		C332.89,369.25,332.69,367.61,332.45,366.63z M318.9,366.81c-0.57-0.34-1.07-0.9-1.29-1.55c-0.22-0.65-0.16-1.28,0.19-1.9
		c0.47-0.86,1.48-1.59,2.43-1.77c0.86-0.15,1.64,0.16,2.19,0.79c0.57,0.65,0.8,1.57,0.68,2.48c-0.16,1.17-0.61,2.22-1.05,3.17
		C320.99,367.72,319.8,367.33,318.9,366.81z M329.45,377.31c-0.37,0.63-0.93,1.13-1.55,1.49c-0.6,0.34-1.29,0.55-2,0.59
		c-1.02,0.04-2.08-0.28-2.81-0.94c-0.46-0.39-0.77-0.86-0.99-1.35c-0.19-0.51-0.28-1.03-0.29-1.61c0-1.64,0.67-3.27,1.39-4.87
		c2.51,0.7,5.12,1.36,7.54,1.89C330.74,374.3,330.25,375.92,329.45,377.31z"/>
	<path class="st0" d="M353.56,345.33c-1.35-0.36-2.95-0.24-4.23,0.43c0.25-1.37,0.14-2.57-0.52-3.82c-0.57-1.03-1.41-1.85-2.46-2.36
		c-1.16-0.57-2.5-0.67-3.74-0.34c-1.37,0.38-2.6,1.31-3.7,2.4c-2.05,1.99-3.71,4.46-4.79,7.13c-0.18,0.47-0.12,0.95,0.1,1.35
		c0.24,0.52,0.72,0.96,1.12,1.29c0.12-0.44,0.33-1,0.52-1.33c3.55,3.87,8.76,9,13.31,13.07c2.04-2.12,4.36-4.58,6.33-6.76
		c1.26-1.36,2.35-3.27,2.43-5.13c0.09-1.51-0.44-2.9-1.43-4.02C355.68,346.27,354.76,345.63,353.56,345.33z M336.86,348.01
		c0.92-1.72,2.14-3.55,3.66-4.96c0.8-0.73,1.65-1.47,2.74-1.68c1.07-0.2,2.15,0.13,2.97,0.89c0.71,0.65,1.13,1.51,1.15,2.5
		c0,1.01-0.63,2.5-1.49,3.43c-1.3,1.41-2.96,3.25-4.37,4.77C339.97,351.4,338.35,349.64,336.86,348.01z M354.14,354.55
		c-1.5,1.86-3.27,3.81-5.06,5.65c-2.13-1.89-4.05-3.74-6.03-5.71l5.19-5.61c0.91-0.98,2.07-1.55,3.27-1.62
		c1.14-0.09,2.16,0.35,2.96,1.18c0.71,0.74,1.14,1.64,1.16,2.67C355.64,352.43,354.98,353.51,354.14,354.55z"/>
	<path class="st0" d="M354.66,336.66c-0.05-0.9,0.12-1.58,0.55-2.19c0.43-0.61,1.13-1.16,2.04-1.64c-0.44-0.3-1-0.57-1.53-0.7
		c-0.48-0.09-0.93-0.05-1.36,0.25c-0.84,0.64-1.42,1.49-1.62,2.46c-0.21,0.89-0.13,1.85,0.21,2.78c-0.45-0.38-1.02-0.86-1.47-1.29
		c-0.42,0.54-1.01,1.37-1.31,1.81c3.96,3.54,8.06,7.05,12.41,10.08c0.26-0.34,0.92-1.25,1.33-1.79c-2.75-1.96-4.91-3.57-7.42-5.74
		C355.44,339.61,354.76,338.15,354.66,336.66z"/>
	<path class="st0" d="M372.91,324.1c-0.47,0.1-0.96,0.34-1.3,0.71c1.03,1.21,1.78,2.5,1.56,4.17c-0.24,1.87-1.62,3.96-3.32,4.71
		c-1.8,0.8-3.64,0.46-5.2-0.5c1.77-3.79,3.94-7.41,6.44-10.96c-1.33-0.85-2.69-1.43-4.15-1.67c-1.63-0.27-3.61,0.18-4.96,1.2
		c-1.75,1.3-2.91,3.33-3.18,5.47c-0.22,1.95,0.33,3.78,1.55,5.33c1.57,2.03,4.07,3.46,6.49,3.76c2.03,0.27,4.16-0.46,5.63-1.83
		c1.42-1.3,2.62-3.51,2.88-5.47c0.21-1.59-0.18-3.28-1.14-4.53C373.89,324.07,373.4,324.02,372.91,324.1z M361,329.01
		c-0.37-1.38-0.13-2.77,0.57-3.98c0.72-1.23,1.82-2.03,3.21-2.25c1.26-0.18,2.07,0.04,3.21,0.55c-1.81,2.82-3.63,5.95-4.98,8.69
		C362.06,331.31,361.3,330.2,361,329.01z"/>
	<path class="st0" d="M377.14,306.82c-1.16-0.72-2.35-1.39-3.28-1.55c-0.95-0.17-1.92,0.04-3.04,0.86c-1.11,0.83-2.03,1.96-2.6,3.23
		c-0.57,1.2-0.85,2.52-0.87,3.86c-0.03,1.16,0.13,2.35,0.5,3.55c0.14,0.42,0.48,0.76,0.88,0.93c0.51,0.22,1.18,0.21,1.73-0.06
		c-0.54-1.28-0.92-2.72-0.97-4.06c-0.05-1.13,0.2-2.53,0.8-3.72c0.49-0.97,1.21-1.78,2.14-2.18c0.93-0.4,1.9-0.19,2.69,0.45
		c-0.44,1.97-0.89,3.68-1.47,5.54c-0.48,1.42-0.87,2.96-0.62,4.47c0.24,1.44,1.06,2.72,2.36,3.37c1.47,0.74,3.18,0.7,4.53-0.18
		c1.46-0.96,2.39-2.68,2.77-4.46c0.34-1.63,0.26-3.27-0.31-5.22c0.37,0.08,1.04,0.28,1.54,0.39c0.57,0.11,1.07-0.05,1.46-0.41
		c0.45-0.4,0.75-1.01,0.79-1.64c-1.62-0.09-3.35-0.51-5.01-1.14C379.71,308.32,378.32,307.59,377.14,306.82z M379.66,318.53
		c-0.6,0.91-1.67,1.52-2.8,1.22c-0.82-0.24-1.56-1.03-1.68-1.89c-0.17-1.37,0.2-2.67,0.6-4c0.48-1.49,0.9-2.95,1.22-4.55
		c0.69,0.35,2,1.05,2.67,1.38c0.7,1.43,1.11,2.95,1.05,4.45C380.66,316.29,380.35,317.46,379.66,318.53z"/>
	<path class="st0" d="M391.11,294.61c-0.33-0.36-0.8-0.51-1.41-0.38c-3.24,0.74-6.19,1.82-9.36,3.15c-0.85-2.42-1.44-4.61-2.02-7.23
		c-0.54,0.19-1.52,0.57-2.04,0.8c0.77,3.49,1.74,6.82,3.23,10.19c-3.98-1.64-7.63-3.36-11.57-5.28c-0.23,0.51-0.67,1.57-0.89,2.11
		c6.75,3.25,13.33,5.97,20.5,8.74c0.19-0.49,0.53-1.45,0.75-2.03c-2-0.75-3.85-1.46-5.79-2.28c-0.52-0.97-0.99-1.98-1.37-2.99
		c3.67-1.67,7-2.63,10.69-3.23C391.73,295.58,391.5,294.99,391.11,294.61z"/>
	<path class="st0" d="M381.83,280.44c-0.47-0.14-1.25-0.38-1.88-0.53c-0.38,1.15-0.67,2.35-0.96,3.62
		c-0.73-0.25-1.91-0.74-2.67-1.03c-0.46-0.2-0.87-0.45-1.07-0.84c-0.17-0.31-0.22-0.68-0.07-1.15c0.32-0.94,0.67-1.71,1.14-2.5
		c-0.54-0.13-1.01-0.18-1.44-0.14c-0.46,0.02-0.81,0.21-1.15,0.72c-0.49,0.76-0.68,1.74-0.75,2.59c-0.04,0.79,0.21,1.45,0.6,1.99
		c0.49,0.63,1.23,1.08,2,1.41c0.83,0.35,1.9,0.77,3.1,1.19c-0.07,0.56-0.1,1.2-0.11,1.78c0,0.42,0.26,0.76,0.61,0.99
		c0.42,0.32,0.98,0.52,1.39,0.64c-0.04-0.95-0.02-1.88,0.09-2.66c4.23,1.53,8.42,2.86,12.73,4.12l0.62-2.08
		c-4.33-1.3-9.1-2.87-13.09-4.33C381.14,283.07,381.49,281.69,381.83,280.44z"/>
	<path class="st0" d="M394.16,266.79c-1.52-0.13-3.06-0.49-4.39-0.93c-1.31-0.4-2.63-0.75-3.56-0.66c-0.97,0.08-1.85,0.53-2.71,1.61
		c-0.86,1.08-1.46,2.41-1.69,3.79c-0.25,1.31-0.18,2.65,0.14,3.96c0.27,1.13,0.73,2.25,1.39,3.3c0.24,0.37,0.66,0.62,1.09,0.67
		c0.55,0.09,1.19-0.09,1.66-0.5c-0.84-1.1-1.58-2.39-1.97-3.68c-0.34-1.08-0.45-2.5-0.18-3.8c0.22-1.06,0.71-2.03,1.51-2.66
		c0.8-0.62,1.79-0.67,2.71-0.25c0.08,2.01,0.08,3.78-0.01,5.73c-0.1,1.5-0.08,3.08,0.54,4.48c0.6,1.33,1.72,2.36,3.14,2.66
		c1.61,0.34,3.26-0.13,4.33-1.33c1.16-1.31,1.63-3.2,1.54-5.02c-0.09-1.67-0.58-3.23-1.64-4.97c0.38-0.01,1.08,0.01,1.59-0.01
		c0.58-0.04,1.02-0.32,1.3-0.77c0.33-0.5,0.47-1.17,0.35-1.79C397.71,266.94,395.93,266.97,394.16,266.79z M395.2,276.54
		c-0.35,1.03-1.22,1.89-2.4,1.9c-0.85-0.02-1.77-0.6-2.11-1.4c-0.52-1.28-0.49-2.64-0.45-4.02c0.08-1.57,0.11-3.08,0.02-4.71
		c0.76,0.16,2.21,0.5,2.93,0.65c1.04,1.2,1.83,2.57,2.15,4.03C395.59,274.12,395.59,275.32,395.2,276.54z"/>
	<path class="st0" d="M398.66,251.15c-0.89-0.72-2-1.06-3.12-0.84c-0.99,0.2-1.9,0.82-2.41,1.76c-0.7,1.29-1.42,2.74-1.98,4.08
		c-0.38,0.96-0.83,1.84-1.38,2.65c-0.45,0.67-1.01,0.98-1.6,0.91c-0.49-0.05-0.93-0.35-1.3-0.95c-0.95-1.57-0.68-3.75,0.12-5.31
		c0.67-1.27,2.15-1.69,3.48-1.64c-0.06-0.6-0.26-1.31-0.65-1.72c-0.28-0.28-0.64-0.41-1.09-0.28c-1.6,0.41-2.81,1.5-3.56,2.88
		c-0.87,1.65-1.1,3.71-0.67,5.5c0.23,0.99,0.72,1.95,1.46,2.59c0.71,0.64,1.6,0.99,2.54,0.94c1.06-0.04,2.09-0.55,2.68-1.45
		c0.64-0.96,1.21-1.95,1.64-3c0.55-1.28,1.13-2.65,1.7-3.8c0.44-0.89,1.29-1.2,2.08-1.05c0.7,0.14,1.37,0.62,1.68,1.4
		c0.63,1.6,0.5,3.64-0.26,5.21c-0.61,1.3-1.83,2.2-3.3,2.22c0,0.56,0.18,1.17,0.51,1.55c0.27,0.34,0.69,0.51,1.2,0.38
		c1.44-0.34,2.87-1.99,3.45-3.33c0.79-1.78,0.89-4.11,0.5-5.93C400.18,252.91,399.55,251.88,398.66,251.15z"/>
	<path class="st0" d="M401.54,241.24c-0.1-0.56-0.4-0.85-0.83-1.05c-0.43-0.23-0.92-0.31-1.48-0.36c0.16,0.72,0.31,1.81,0.32,2.49
		c-0.01,0.4-0.18,0.67-0.43,0.88c-0.22,0.18-0.5,0.26-0.84,0.25c-3.91,0.02-7-0.21-10.71-0.5c-0.03-0.93,0.01-2.01,0.08-3.16
		c-0.68-0.06-1.48-0.08-2.2-0.08c-0.04,0.99-0.02,2.23,0.02,3.04c-1.42-0.14-4.54-0.5-6.27-0.72c0.01,0.53-0.02,1.55-0.05,2.26
		c1.73,0.25,4.17,0.49,6.45,0.72c0.05,0.47,0.12,1.03,0.26,1.47c0.11,0.5,0.38,0.79,0.74,0.99c0.55,0.3,1.23,0.35,1.85,0.41
		c-0.31-0.88-0.56-1.79-0.62-2.72c3.24,0.3,6.58,0.45,10.46,0.52c0.9,0.03,1.65-0.16,2.19-0.57c0.54-0.38,0.9-0.99,1.06-1.85
		C401.65,242.61,401.67,241.9,401.54,241.24z"/>
</g>
</svg>
